<?xml version="1.0" standalone="no"?>
<!DOCTYPE svg PUBLIC "-//W3C//DTD SVG 20010904//EN" "http://www.w3.org/TR/2001/REC-SVG-20010904/DTD/svg10.dtd">
<svg xmlns="http://www.w3.org/2000/svg" version="1.0" width="15.984000pt" height="15.984000pt" viewBox="0 0 15.984000 15.984000" preserveAspectRatio="xMidYMid meet">
    <metadata>Copyright (c) 2019 Mark Jivko, https://markjivko.com</metadata>
    <g transform="translate(0.000000,15.984000) scale(0.003122,-0.003122)" fill="#ffffff" stroke="#000000" stroke-width="200" stroke-location="outside">
        <g>
            <path d="M2355 5004 c-110 -64 -510 -295 -890 -514 -379 -218 -751 -432 -825 -475 -74 -43 -171 -99 -215 -125 l-80 -46 -3 -285 -2 -284 117 0 c111 0 122 -2 183 -31 l65 -30 53 37 c102 72 320 130 429 115 45 -6 47 -5 82 36 54 63 174 154 254 193 112 53 229 78 372 78 199 -1 358 -36 720 -161 127 -44 271 -89 320 -100 330 -76 627 -40 777 96 25 23 55 66 77 112 36 74 36 75 75 75 30 0 43 -6 59 -27 20 -26 20 -26 -3 -99 -32 -107 -82 -199 -144 -266 -96 -104 -199 -143 -374 -143 -135 0 -257 25 -480 99 -98 33 -178 58 -180 56 -3 -3 -77 -419 -121 -680 -66 -392 -111 -789 -113 -988 -1 -188 22 -217 94 -122 77 100 266 520 348 768 12 39 34 79 51 96 81 82 283 82 328 0 13 -24 12 -35 -12 -120 -77 -274 -121 -662 -73 -646 37 12 169 334 232 567 15 52 34 103 43 114 54 61 213 95 281 59 63 -33 67 -51 46 -215 -26 -202 -32 -508 -13 -621 30 -170 80 -190 167 -66 83 118 221 446 254 605 l7 31 -81 26 c-44 15 -104 42 -133 60 -65 42 -160 144 -192 206 -57 114 -71 267 -34 386 17 57 31 78 82 130 53 54 72 66 131 84 191 58 318 -9 382 -204 22 -67 27 -104 31 -225 3 -80 0 -179 -5 -220 -5 -41 -6 -79 -2 -84 20 -21 150 -19 245 4 l95 23 -2 780 -3 781 -47 27 c-25 15 -66 38 -90 52 -23 13 -160 92 -303 174 -143 83 -278 161 -300 173 -22 12 -92 53 -155 90 -63 37 -131 76 -150 87 -79 44 -713 410 -813 469 -59 35 -109 64 -111 64 -2 0 -57 31 -122 70 -66 38 -121 70 -124 70 -3 0 -95 -53 -205 -116z"/>
        </g>
        <g>
            <path d="M1745 3526 c-124 -29 -261 -102 -333 -178 l-33 -35 38 -24 c56 -34 160 -136 203 -199 123 -181 189 -429 162 -605 -15 -95 -38 -150 -88 -204 -64 -72 -102 -86 -230 -86 -107 0 -112 1 -186 38 -136 67 -222 193 -253 372 -18 104 -19 157 -4 262 9 63 49 206 75 270 7 17 -77 63 -115 63 -33 0 -70 -16 -133 -58 l-37 -24 23 -32 c59 -77 106 -211 106 -297 0 -140 -97 -232 -222 -213 -57 9 -95 28 -141 72 -84 82 -89 233 -12 387 19 37 32 72 29 76 -15 25 -179 42 -232 25 l-22 -7 2 -927 3 -926 365 -211 c201 -116 574 -332 830 -480 762 -440 819 -472 880 -507 25 -14 66 -38 92 -52 40 -23 50 -25 70 -15 20 11 520 299 1853 1069 l340 196 3 433 c2 410 1 433 -15 426 -45 -17 -206 -44 -281 -47 -79 -3 -83 -4 -88 -28 -33 -143 -116 -374 -179 -500 -83 -167 -212 -314 -320 -365 -85 -40 -192 -46 -255 -13 -97 50 -160 187 -183 398 l-13 115 -44 -84 c-55 -103 -143 -201 -213 -235 -58 -30 -137 -35 -191 -12 -72 30 -123 126 -135 259 l-6 72 -48 -91 c-101 -194 -236 -354 -348 -413 -46 -25 -71 -32 -118 -32 -169 -1 -240 144 -241 492 0 286 33 556 160 1300 44 256 80 475 80 487 0 16 -11 24 -54 36 -193 57 -425 79 -541 52z"/>
        </g>
        <g>
            <path d="M1185 2975 c-43 -148 -45 -317 -6 -428 22 -64 72 -139 108 -162 21 -14 24 -14 42 4 33 33 44 96 38 221 -4 89 -11 132 -31 190 -29 82 -104 221 -123 227 -6 3 -18 -19 -28 -52z"/>
        </g>
        <g>
            <path d="M694 2986 c-44 -68 -58 -185 -28 -231 18 -28 74 -49 104 -40 42 13 39 116 -6 215 -35 79 -48 89 -70 56z"/>
        </g>
        <g>
            <path d="M4200 2788 c-32 -53 -45 -133 -32 -207 13 -76 59 -175 101 -215 l30 -29 7 27 c3 15 4 97 2 184 -6 181 -26 265 -65 270 -16 2 -28 -6 -43 -30z"/>
        </g>
    </g>
</svg>
